<?xml version="1.0" encoding="UTF-8" standalone="no"?>
<!-- Generator: Adobe Illustrator 28.3.0, SVG Export Plug-In . SVG Version: 6.00 Build 0)  -->

<svg
   version="1.1"
   id="Layer_1"
   x="0px"
   y="0px"
   viewBox="0 0 1764.7 552.3"
   style="enable-background:new 0 0 1764.7 552.3;"
   xml:space="preserve"
   sodipodi:docname="Round_Table_Great_Britain_amp_Ireland_2024_Table_Grey_Logo-01-Farnham-90.svg"
   inkscape:version="1.1.2 (0a00cf5339, 2022-02-04)"
   xmlns:inkscape="http://www.inkscape.org/namespaces/inkscape"
   xmlns:sodipodi="http://sodipodi.sourceforge.net/DTD/sodipodi-0.dtd"
   xmlns="http://www.w3.org/2000/svg"
   xmlns:svg="http://www.w3.org/2000/svg"><defs
   id="defs16">
	
	

		
		
	</defs><sodipodi:namedview
   id="namedview14"
   pagecolor="#ffffff"
   bordercolor="#666666"
   borderopacity="1.0"
   inkscape:pageshadow="2"
   inkscape:pageopacity="0.0"
   inkscape:pagecheckerboard="0"
   showgrid="false"
   inkscape:zoom="0.67376893"
   inkscape:cx="1171.0246"
   inkscape:cy="217.43359"
   inkscape:window-width="1368"
   inkscape:window-height="840"
   inkscape:window-x="0"
   inkscape:window-y="0"
   inkscape:window-maximized="1"
   inkscape:current-layer="Layer_1" />
<style
   type="text/css"
   id="style2">
	.st0{display:none;}
	.st1{display:inline;}
	.st2{fill:#1D1D1A;}
</style>
<path
   class="st2"
   d="m 267.1,244.5 c 1.1,0.1 2.3,0.4 3.3,0.9 3.2,1.3 6.5,1.3 9.8,0.2 1.1,-0.4 2.4,-0.6 3.6,-0.7 2.1,0 3.9,2.1 3.7,4.1 -0.1,1.1 -0.7,1.9 -1.9,2.4 -0.2,-0.6 -0.4,-1.1 -0.6,-1.7 -0.5,-1.4 -1,-1.8 -2.4,-1.5 -0.9,0.1 -1.9,0.4 -2.7,0.8 -2.6,1.1 -5.3,1.2 -7.9,0.1 -1.1,-0.5 -2.1,-0.9 -3.2,-1.3 -0.6,-0.2 -1.2,-0.4 -1.8,-0.4 -1.6,-0.2 -2.1,0.3 -2.1,2 0,0.2 -0.1,0.4 -0.1,0.8 -1.8,-0.3 -2.4,-1.5 -1.8,-3.1 0.6,-1.6 2.3,-2.8 4.1,-2.6 z m 18,58.2 c 1,-0.8 1.9,-1.8 2.6,-2.8 1.9,-2.6 4.4,-4.4 7.6,-5.2 1.2,-0.3 2.4,-0.7 3.4,-1.3 1.7,-0.9 2.4,-2.9 1.9,-4.8 -0.4,-1.6 -1.8,-2.2 -3.3,-1.3 0.2,0.3 0.3,0.5 0.4,0.7 1.1,1.3 1,1.9 -0.3,2.7 -0.5,0.3 -1.1,0.6 -1.7,0.7 -1.1,0.3 -2.2,0.6 -3.4,0.8 -2.9,0.6 -5,2.3 -6.6,4.8 -0.5,0.8 -1.1,1.6 -1.7,2.2 -1.1,1 -1.7,1 -2.9,0.2 -0.5,-0.3 -0.9,-0.6 -1.5,-1 -0.5,1.3 -0.7,2.2 0,3.2 1.3,1.8 3.8,2.4 5.5,1.1 z m -0.2,-75.4 c 0.9,0.1 1.2,-0.6 1.5,-1.3 0.9,-2.2 2.3,-2.7 4.3,-1.4 1.3,0.9 2.4,2.2 3.4,3.4 1.6,2.1 2.9,4.3 4.3,6.4 1.5,2.3 3.5,3.9 5.9,5.3 2,1.1 4.3,1.7 6.5,2.3 1.9,0.5 3.8,1.2 5.5,2.1 1.7,0.9 2,2.1 1.4,4 -0.3,0.8 -0.6,1.7 -0.9,2.5 -0.3,1.1 0,1.6 1.1,1.7 1.6,0.1 3.1,-0.4 4.2,-1.7 1.2,-1.4 1.7,-3.1 1.8,-4.6 0,-3.2 -1.1,-5.4 -3.8,-6.9 -1.9,-1 -4,-1.8 -6,-2.4 -2.4,-0.7 -4.6,-1.7 -6.7,-3 -3.3,-2 -5.9,-4.8 -8.1,-8 -1.1,-1.7 -2.4,-3.3 -3.9,-4.7 -2.8,-2.5 -7,-2.6 -10,-0.5 -1.8,1.2 -2.6,3.3 -2,5.2 0.3,0.9 0.6,1.6 1.5,1.6 z m -54.8,26 c 0.7,0.1 1.5,-0.1 1.9,-0.9 0.4,-0.9 -0.1,-1.4 -0.7,-1.9 -1.9,-1.6 -1.9,-3.1 0.1,-4.6 1.4,-1 3,-1.6 4.5,-2.2 2.4,-0.8 4.8,-1.4 7.2,-2.1 2.7,-0.7 5,-2.2 6.9,-4.2 1.3,-1.4 2.4,-3.1 3.6,-4.7 1.3,-1.7 2.4,-3.5 3.8,-5 1.6,-1.6 2.8,-1.5 4.5,-0.2 0.7,0.5 1.3,1.1 1.9,1.5 1,0.6 1.7,0.4 2,-0.7 0.5,-1.6 0.5,-3.2 -0.6,-4.7 -1.9,-2.7 -7.1,-5.1 -11.1,-1.4 -1.6,1.5 -2.8,3.3 -4.2,5 -1,1.2 -1.8,2.6 -2.9,3.7 -3.1,3.2 -6.7,5.5 -11,6.8 -2.2,0.7 -4.4,1.4 -6.5,2.5 -2.9,1.5 -4.2,4.1 -4.3,7.9 0.1,0.4 0.2,1.4 0.6,2.3 1,1.8 2.4,2.7 4.3,2.9 z m 19,23.1 c -0.2,-0.1 -0.5,-0.2 -0.7,-0.3 -1.5,-0.5 -1.8,-0.9 -1.3,-2.3 0.3,-0.7 0.7,-1.3 1.1,-1.9 0.7,-0.9 1.5,-1.8 2.2,-2.7 1.9,-2.2 2.6,-4.7 2.3,-7.6 -0.1,-0.7 -0.1,-1.5 0,-2.2 0.3,-2 0.7,-2.3 2.6,-2.3 0.4,0 0.8,0 1.4,0 -0.4,-2.1 -1,-2.7 -2.6,-2.9 -2,-0.2 -3.6,0.9 -4.2,2.8 -0.3,1 -0.4,2 -0.4,3 0.1,3.6 -1,6.8 -3.4,9.6 -0.6,0.8 -1.2,1.6 -1.7,2.6 -0.9,1.9 -0.2,4.2 1.4,5.3 1.5,0.9 2.8,0.5 3.3,-1.1 z m -27.7,9.2 c 3.9,5 5.7,10.6 5.3,16.9 0.1,1.8 0.2,3.7 0.4,5.5 0.5,4.2 3.6,7 7.8,7.4 1.9,0.2 3.5,-0.6 4.6,-2.2 0.8,-1.1 0.9,-2.2 0.3,-2.8 -1,-1 -1.7,-0.2 -2.5,0.3 -1.4,0.9 -2.5,0.7 -3.4,-0.7 -0.4,-0.7 -0.8,-1.5 -0.9,-2.3 -0.2,-1.4 -0.3,-2.8 -0.3,-4.3 0,-2.4 0.2,-4.9 0.3,-7.3 0.1,-2.1 -0.4,-4 -1.1,-6 -1,-2.5 -2.4,-4.7 -4.2,-6.7 -1.3,-1.5 -2.5,-3.1 -3.4,-4.8 -1.1,-2.2 -0.7,-3.3 1.3,-4.7 0.7,-0.5 1.4,-0.9 2,-1.4 0.7,-0.6 0.7,-1.3 -0.1,-1.9 -1.3,-0.9 -2.7,-1.5 -4.4,-1.1 -3.4,0.9 -7.5,5.2 -5.2,10.3 0.8,2.2 2.1,4 3.5,5.8 z m 74.1,-29 c 1.4,-0.4 1.9,-0.1 2.2,1.2 0.2,0.8 0.2,1.6 0.2,2.4 0,1.1 -0.1,2.2 -0.2,3.3 -0.2,2.9 0.7,5.3 2.6,7.5 0.6,0.7 1.2,1.5 1.6,2.4 0.6,1.3 0.4,1.8 -0.6,2.6 -0.5,0.4 -0.9,0.7 -1.4,1.1 1.5,1.5 2.3,1.6 3.7,0.8 1.7,-1 2.5,-3 1.7,-4.9 -0.4,-0.9 -0.9,-1.8 -1.5,-2.6 -2.2,-2.8 -3.1,-6 -2.8,-9.6 0.1,-1.1 0,-2.3 -0.3,-3.4 -0.4,-1.8 -2.1,-3 -3.9,-3.1 -1,0 -1.8,0.3 -2.2,1.1 -0.2,0.3 -0.1,0.9 -0.1,1.3 0.3,-0.1 0.7,0 1,-0.1 z m -41.7,37.3 c 3.5,1 6.2,3.1 8.1,6.1 0.6,0.9 1.3,1.8 2.1,2.5 1.5,1.4 3.8,1.4 5.3,0.2 1.3,-1 1.3,-2.2 0.1,-3.4 -0.2,0.2 -0.4,0.5 -0.6,0.7 -0.8,1.2 -1.3,1.3 -2.5,0.5 -0.6,-0.4 -1.1,-1 -1.5,-1.6 -0.7,-1.1 -1.4,-2.2 -2.1,-3.3 -1.4,-2.2 -3.4,-3.5 -5.8,-4.1 -0.7,-0.2 -1.5,-0.3 -2.2,-0.6 -2.1,-0.8 -2.5,-1.6 -1.7,-3.7 0.1,-0.2 0.2,-0.5 0.3,-0.9 -1.7,-0.4 -2.4,-0.2 -3.1,0.9 -1.1,1.7 -0.8,4.1 0.8,5.3 0.8,0.6 1.8,1.1 2.8,1.4 z m 43.1,27.3 c -0.9,0.6 -0.6,1.4 -0.4,2.2 0.6,2 -0.2,3.1 -2.3,3.3 -1.7,0.2 -3.4,0 -5,-0.6 -2.2,-0.8 -4.5,-1.6 -6.7,-2.5 -5.1,-2 -10,-1.4 -14.8,0.8 -1.8,0.8 -3.7,1.4 -5.6,1.7 -2.2,0.4 -3.3,-0.4 -4,-2.6 -0.3,-0.8 -0.4,-1.7 -0.8,-2.5 -0.4,-0.9 -1,-1.1 -1.8,-0.5 -1.4,1 -2.4,2.2 -2.4,4 -0.1,4.5 3.5,8.1 8,8 2.5,-0.1 4.8,-0.9 7.1,-1.8 2.6,-1 5.3,-1.4 8,-1.5 3.4,-0.1 6.6,0.6 9.8,1.7 2.1,0.7 4.3,1.2 5.4,1.5 4.7,0.1 8,-2.2 9.1,-5.6 0.6,-1.9 0.3,-3.7 -1.2,-5.1 -0.6,-0.6 -1.4,-1.1 -2.4,-0.5 z M 325,269.8 c 0.2,0.5 0.8,0.8 1.3,1.1 0.1,0.1 0.4,0 0.6,0 2.2,0.2 3,1.1 2.5,3.2 -0.4,1.5 -1.1,3.1 -2,4.4 -1.6,2.3 -3.4,4.4 -5.1,6.6 -1.9,2.4 -3,5.1 -3.2,8 -0.2,2.6 0,5.1 0,7.7 0.1,0 0.2,0 0.3,0 -0.2,1.3 -0.2,2.6 -0.5,3.8 -0.5,2.2 -1.4,2.8 -3.6,2.8 -0.8,0 -1.6,-0.1 -2.4,-0.1 -1.2,0.1 -1.6,0.7 -1.2,1.8 0.6,1.7 1.6,2.9 3.4,3.5 3.4,1 8.8,-0.6 9.7,-5.7 0.3,-1.8 0.4,-3.6 0.4,-5.5 0.1,-2 0,-4 0.2,-5.9 0.6,-4.5 2.4,-8.6 5.3,-12.2 1.4,-1.8 2.6,-3.7 3.5,-5.7 1.5,-3.4 0.2,-7.3 -2.7,-9.5 -1.9,-1.4 -4.7,-1.4 -6,0.1 -0.3,0.6 -0.6,1.3 -0.5,1.6 z m 198.6,9.1 C 522.2,414.3 411.5,525.7 272.9,524.4 137.4,523.2 27.2,413.2 26.9,276.1 27.1,137.5 139.8,27.1 276.5,27.8 414.1,28.5 525.1,141.1 523.6,278.9 Z m -7.6,11 c 1.1,-17.9 0.1,-35.8 -2.9,-53.5 -4,-24.2 -11.6,-47.3 -22.7,-69.2 C 461.4,110 410.7,66.6 349.8,46.8 c -21.6,-7 -43.7,-10.9 -66.4,-11.6 -13.8,-0.4 -27.5,0.2 -41.2,2.1 -2.6,0.4 -5.2,0.8 -8,1.3 1.8,2.6 3.4,5 5.1,7.4 0.8,-0.1 1.5,-0.2 2.2,-0.3 4.1,-0.5 8.2,-1 12.4,-1.5 7.7,-0.8 15.4,-1 23.1,-0.9 1.1,0 1.7,-0.4 2.3,-1.3 1.1,-1.6 2.4,-3.1 3.8,-4.5 1.3,-1.2 2.9,-1.7 4.7,-1.4 3.6,0.6 6.2,3.5 6.5,7.1 0,0.2 0.1,0.5 0.1,0.6 61.1,6 112.8,31.1 153.8,76.7 41,45.6 61.1,99.5 59.8,160.8 C 505.6,400.5 413.3,497 297.6,508 182.5,519 79.2,444.4 50.2,335.9 40.4,299.2 39.7,262.2 48.1,225.1 c 8.1,-36.2 24,-68.7 47.8,-97.1 35.4,-42.4 80.3,-69.1 134.4,-80.4 -0.5,-1.2 -1.2,-2.3 -1.5,-3.4 -0.3,-1.2 -0.2,-2.4 -0.3,-3.7 0,-0.2 -0.1,-0.5 -0.2,-0.7 0,0 0,0 0,0 0,0 0,0 0,-0.1 1.9,-0.4 3.8,-0.7 6.1,-1.2 -1.2,-1.2 -2,-2.3 -3.1,-3.1 -1.4,-1.1 -2.2,-0.7 -2.5,1 -0.2,1.1 -0.3,2.2 -0.5,3.3 0,0 0,0 -0.1,0 0,0 0.1,0 0.1,0 h -0.1 c 0,0 0,0 0,0.1 -3.4,0.7 -6.9,1.4 -10.3,2.2 -46.9,11.7 -87,35.2 -119.8,70.8 -38.7,42.1 -59.7,92 -63.5,149 -1,14.9 -0.4,29.7 1.5,44.5 1.9,15.5 5.2,30.6 10.2,45.3 17.7,52.5 49.5,94.3 95.4,125.2 35.3,23.7 74.3,36.8 116.7,39.9 16.1,1.2 32.1,0.6 48.1,-1.5 15.5,-2 30.7,-5.4 45.5,-10.5 39.2,-13.3 73,-35.1 100.9,-65.8 38.5,-42.2 59.4,-92 63.1,-149 z M 235.2,55.4 c -0.3,-0.5 -0.7,-1 -1,-1.4 -9.3,1.7 -18.3,4 -27.4,6.9 0.2,0.7 0.4,1.3 0.5,1.8 11.5,34.1 23,68.2 34.5,102.3 0,0 0.1,0.1 0.2,0.1 0.1,0 0.1,0 0.2,-0.1 0.1,-5.6 0.2,-11.3 0.3,-16.9 0.2,-15.4 0.3,-30.9 0.4,-46.3 0.1,-10.5 0.2,-21 0.3,-31.4 0,-1.1 -0.2,-2.1 -0.8,-3.1 -2.5,-4 -4.8,-8 -7.2,-11.9 z m 7.2,4.9 c 0.7,-2.6 0,-4.3 -1.3,-6 -1.1,-1.4 -1.1,-1.5 -3.1,-0.6 1.4,2.1 2.8,4.1 4.4,6.6 z m 28.3,-7.5 c 0.4,-0.7 0.9,-1.5 1.4,-2.5 -8,0 -15.6,0.6 -23.3,1.5 0,1 0,1.8 0,2.6 0.1,2 0.2,3.9 0.2,5.9 0,1.2 0.4,2.2 1,3.2 5.2,8.1 10.3,16.2 15.4,24.3 0.3,0.5 0.6,0.9 1.1,1.6 0.3,-0.5 0.4,-0.7 0.5,-1 1.8,-4.8 3.6,-9.7 5.4,-14.5 0.3,-0.8 0.2,-1.5 0,-2.4 -1,-4.1 -2,-8.2 -3,-12.3 -0.5,-2.3 0.2,-4.4 1.3,-6.4 z m 3.8,6 c -0.4,-0.5 -0.9,-1.1 -1.6,-1.9 -0.5,3.5 0.7,5.9 2.3,8.3 6.6,-1.4 13.1,-0.7 19.6,0 2.5,-4.1 2.6,-5.2 1.2,-6.7 -0.1,0 -0.3,0 -0.4,0.1 -0.8,0.8 -1.5,1.6 -2.2,2.4 -2.8,3.1 -6,2.7 -7.8,-1 -0.4,-0.8 -0.9,-1.4 -1.4,-2.1 -0.2,0 -0.4,0 -0.6,0 -0.4,0.8 -0.9,1.6 -1.3,2.4 -1.3,2.5 -3.9,2.9 -5.9,0.9 -0.7,-0.7 -1.3,-1.6 -1.9,-2.4 z m 0.7,-4.9 c 0.7,1.5 1.7,2.9 2.9,4.1 1,1.1 2.2,0.6 2.3,-0.8 0.1,-2.2 0,-4.4 0,-6.9 -1.1,0 -1.9,0 -2.8,0 -1.9,0.1 -3.2,1.9 -2.4,3.6 z m 8.9,-1 c 0.6,0.4 1.5,0.7 2,0.4 0.5,-0.2 0.7,-1.2 1,-1.9 -0.4,-1 -0.7,-2 -1.3,-2.8 -0.8,-1.1 -1.7,-0.9 -2.4,0.1 -1.2,1.6 -1,3.1 0.7,4.2 z m 5.1,-0.6 c 0,1.6 -0.1,3.3 0,4.9 0.1,1.6 1.2,2.1 2.3,1.1 1.1,-1 2,-2.2 2.7,-3.5 0.3,-0.5 0.3,-1.5 0.1,-2.1 -0.6,-2 -2.7,-3 -5.2,-2.7 0.1,0.8 0.1,1.6 0.1,2.3 z m 12.3,7.2 c -0.5,1.3 -1,2.7 -1.5,4 -1.1,3.1 -2.2,6.3 -3.4,9.4 -0.5,1.3 -0.4,2.6 0.2,3.9 1.6,3 3.1,6.1 4.6,9.1 0.7,1.5 1.8,2.7 3.2,3.7 4.5,3.4 8.9,6.8 13.3,10.1 0.4,0.3 0.8,0.5 1.3,0.8 0,-15.4 0,-30.6 0,-46 -7.2,-1.4 -14.4,-2.6 -22.2,-3.2 0.7,0.8 1.1,1.3 1.5,1.7 0.7,0.8 1.4,1.5 2.1,2.2 1.1,1.4 1.5,2.7 0.9,4.3 z m 66.7,422.3 c 11.8,-4.1 42.2,-23.1 50.3,-31.4 -28.6,-33.8 -57.1,-67.6 -85.7,-101.4 -5.7,4.5 -11.8,8.2 -18.2,11.3 17.9,40.7 35.8,81.1 53.6,121.5 z M 289.6,368 c -7.2,1 -14.3,1.4 -21.5,0.8 -3.8,44.2 -7.6,88.2 -11.4,132.4 20,1.8 39.6,0.6 59.2,-3 -8.8,-43.5 -17.6,-86.8 -26.3,-130.2 z m 166.8,42.9 c 11.9,-16 21.5,-33.1 28.9,-51.7 -41.5,-15.9 -82.8,-31.7 -124.1,-47.6 -2.8,6.7 -6.3,12.8 -10.4,18.6 35.3,27 70.4,53.8 105.6,80.7 z m 42.8,-104.6 c 2.6,-19.8 2.7,-39.3 0.1,-59 -44,6.1 -87.7,12.1 -131.6,18.1 0.7,7.1 0.7,14.1 0.1,21.1 43.8,6.6 87.4,13.2 131.4,19.8 z M 485.9,194.5 C 478.7,176 469.4,159 457.7,143 c -35.6,26.5 -71.1,52.9 -106.7,79.3 4.1,5.8 7.4,11.8 10.2,18.2 41.6,-15.4 83.1,-30.7 124.7,-46 z m -65.4,-91.1 c -9.1,-9 -40.9,-29.3 -49.2,-31.4 -18.4,40.2 -36.7,80.4 -55.1,120.5 3.1,1.8 6,3.4 8.8,5.2 2.9,1.8 5.6,3.9 8.5,5.9 29.1,-33.4 58.1,-66.8 87,-100.2 z m -118.1,58.7 c 0.3,-1.3 1.8,-1.6 2.7,-0.6 0.4,0.5 0.7,1.2 0.8,1.8 0.2,1 0.3,2 0.5,3 0.2,0.9 0.4,1.8 0.6,2.6 0.2,0 0.4,0 0.6,0 0.1,-0.4 0.4,-0.7 0.4,-1.1 0,-4.1 -0.1,-8.2 -0.2,-12.2 0,-1.2 -0.8,-1.6 -1.8,-1.9 -1.1,-0.3 -2.2,-0.7 -3.2,-1.1 -1.9,-0.8 -2.6,-0.7 -3,1.4 -0.4,1.8 -0.7,3.6 -0.7,5.4 -0.2,8 1.4,15.8 3.8,23.4 0.2,0.6 0.5,1.3 0.8,1.9 0.9,1.7 1.9,2 4.1,1.3 -0.2,-0.7 -0.4,-1.4 -0.6,-2.1 -0.6,-1.7 -1.3,-3.3 -1.7,-5 -1.1,-5 -2.1,-10.1 -3.1,-15.2 -0.1,-0.4 -0.1,-1 0,-1.6 z m -4.9,19.9 c 0.1,1.4 -0.2,1.7 -1.6,1.7 -0.4,0 -0.9,0 -1.3,0 -0.4,1 -0.1,1.5 0.7,1.7 1.4,0.3 2.9,0.7 4.3,1 1,-2.9 -0.4,-9.5 -2.8,-13.3 -1.7,1.4 -1.7,1.4 -4.2,1.2 -0.2,1.6 0.1,3.1 0.6,4.5 0.2,0.7 0.7,1.1 1.5,1 2,-0.2 2.6,0.4 2.8,2.2 z m -13.3,-78.5 c 0.4,-0.1 0.8,-0.3 1.5,-0.5 -2.6,-1.1 -4.8,-2.1 -7,-2.9 -2.1,-0.7 -4.3,0.7 -4.6,3.1 0.6,-0.1 1.2,-0.1 1.7,-0.3 1.8,-0.8 2.1,-0.7 3.1,1.1 0.7,1.4 1.4,2.8 2.2,4.1 0.7,1.2 0.8,2.3 0.2,3.5 -0.3,0.7 -0.6,1.4 -0.9,2.1 -0.3,1 -0.5,1.9 0,2.9 2.2,-0.9 3.9,-4.1 3.2,-6.2 -0.4,-1.4 -1.1,-2.7 -1.4,-4 -0.3,-1.7 0.3,-2.4 2,-2.9 z m -15.4,48.9 c -1.2,0.3 -2,0.5 -2.9,0.7 -0.5,1.4 -0.2,5.9 0.6,7 0.5,0.8 1.5,0.9 2.8,0.6 1,-0.3 1,-1 1,-1.7 -0.2,-4.7 -1.3,-9.3 -2.5,-13.9 -2.6,1.3 -3,3.2 -1.2,5 0.7,0.6 1.3,1.3 2.2,2.3 z m -12.2,10 c -0.1,-2 0.8,-2.8 2.5,-2.9 0.6,4 1.4,8 1.9,12.1 0.5,4.1 0.7,8.2 1,12.5 1.2,-0.2 2.4,-0.3 3.5,-0.5 0.3,-5.6 0.1,-10.8 -1,-16.1 -1.2,-6 -2.5,-12 -2.3,-18.2 0.1,-2.6 -1,-4.1 -3.8,-5.2 -1.7,3 -3.2,6.1 -4,9.5 -0.8,3.7 -1.4,7.3 -2,11 -0.8,4.8 -1.4,9.6 -2.1,14.3 -0.2,1.6 -0.7,3.2 -1,4.8 -0.1,0.8 0,1.7 0.1,2.9 2,-0.5 3.5,-0.9 5,-1.2 1.2,-0.2 2,-0.8 2.1,-2.1 0.1,-0.5 0.3,-1.1 0.4,-1.6 0.8,-4.3 0.8,-8.7 0.2,-13 -0.2,-2 -0.5,-4.1 -0.5,-6.3 z m 16.6,-47.1 c -2.2,1.1 -3.4,3.1 -3.9,5.4 -0.2,0.9 0.4,1.6 1.3,1.6 1.7,0.1 5.7,-3.7 5.7,-5.5 0,-1.3 -1.6,-2.2 -3.1,-1.5 z m 4.2,-5.3 c 0,-0.8 0,-1.6 0,-2.4 -1,-0.3 -1.2,0.2 -1.2,0.9 -0.1,0.8 -0.2,1.6 1.2,1.5 z m -8.6,-8.7 c -6.1,-9.9 -12.1,-19.9 -18.1,-29.8 -0.3,-0.6 -0.7,-1.1 -1.1,-1.7 -0.5,1.3 -0.5,2.4 0.2,3.5 6.4,10.4 12.7,20.9 19.1,31.3 0.2,0.4 0.5,0.6 0.9,1.1 0.3,-1.7 -0.2,-3.1 -1,-4.4 z m -11.4,11.2 c 1.6,-1 3.1,-2.2 4.6,-3.4 0.7,-0.6 1.5,-1.2 2.1,-1.9 0.7,-0.9 0.4,-1.8 -0.7,-2.1 -1.1,-0.3 -2.3,-0.3 -3.4,-0.4 -1.4,-0.2 -2.8,-0.3 -4.2,-0.8 -2.3,-0.8 -4.4,-0.5 -6.5,0.6 0,3.8 0,7.6 0,11.7 1.7,-0.6 3.1,-1.1 4.5,-1.8 1.2,-0.5 2.4,-1.2 3.6,-1.9 z m -2.2,6.5 c 0,-0.2 -0.6,-0.5 -0.8,-0.4 -0.4,0.2 -0.8,0.5 -1,0.8 -0.2,0.4 0,1 0,1.9 0.8,-0.5 1.4,-0.7 1.7,-1.1 0.3,-0.2 0.2,-0.8 0.1,-1.2 z m 8,22.1 c 0.2,-0.4 0.5,-0.7 0.5,-1 0.4,-1.6 0.9,-3.3 1.2,-4.9 0.2,-1.2 0.4,-2.6 -0.9,-3.5 -2,3.1 -2.4,7 -0.8,9.4 z m 3.3,-13.3 c 0.2,-1 0.3,-1.8 -0.9,-2 -0.6,-0.1 -1.1,0.2 -1.1,0.9 0.1,1.1 0.9,1.2 2,1.1 z m 0.1,-11.8 c 1.1,-0.1 2.2,-1.2 2.2,-2.3 0,-1 -0.8,-1.6 -2.1,-1.6 -1.2,0 -1.9,0.6 -1.9,1.6 -0.1,1.2 0.9,2.3 1.8,2.3 z m -17,-16.4 c 2.5,-2 4.9,-3.9 7.4,-5.9 -2.5,-4.3 -4.9,-8.5 -7.3,-12.7 -0.8,3.5 -0.6,17.1 -0.1,18.6 z m -0.4,31.1 c 0.1,2.4 0.2,4.7 0.6,7.1 0.4,2.1 0.2,4.4 0,6.5 -0.3,2.3 -0.2,4.6 -0.3,6.9 0,0.4 0.1,0.9 0.2,1.3 1.2,-0.2 1.7,-0.9 1.9,-1.8 0.2,-1.1 0.4,-2.3 0.4,-3.4 0,-3.9 0,-7.9 0,-11.8 0,-0.7 0.1,-1.3 0.1,-2.3 0.9,0.5 1.7,0.8 2.3,1.2 0.8,0.6 1.6,1.3 2.4,1.9 1.7,1.1 2.6,0.6 2.9,-1.4 0.2,-1.5 0.6,-3.1 1,-4.5 0.3,-1.2 0.9,-2.4 1.2,-3.7 0.4,-1.5 0.6,-3 0,-4.6 -2,-0.5 -3.8,0 -5.5,1 -2.6,1.6 -4.8,3.6 -6.7,5.9 -0.3,0.3 -0.5,1 -0.5,1.7 z m 18,35 c -0.1,2.1 1.7,4.4 4.3,5.1 0.3,-2.1 -0.1,-3.9 -0.4,-5.8 -0.1,-0.7 -1.8,-1.3 -2.8,-1.1 -1,0.3 -1.1,1.1 -1.1,1.8 z m 1.6,11.4 c 0.1,1.6 1.9,3.4 3.7,3.8 0.1,-2.2 0.5,-4.4 -0.3,-6.6 -0.8,0.3 -1.4,0.6 -2,0.8 -1.2,0.4 -1.5,0.8 -1.4,2 z m 4.3,-18.9 c 0.7,6.4 1.6,12.8 2.4,19.2 0.2,1.9 0.4,3.7 0.6,5.7 1.1,0 1.9,0 2.8,0 0.1,-0.2 0.3,-0.4 0.3,-0.5 0.2,-0.6 0.5,-1.3 0.7,-1.9 1.6,-5.5 2.3,-11.2 2.4,-16.9 0.2,-12.3 -0.7,-24.5 -1.3,-36.7 0,-0.5 -0.2,-1 -0.3,-1.5 -1.3,0.2 -2.6,0.2 -3.7,0.6 -0.7,0.2 -1.5,0.7 -2,1.2 -0.7,0.8 -1.2,1.8 -1.5,2.8 -1.4,3.7 -2.1,7.6 -1.8,11.6 0.2,5.4 0.8,10.9 1.4,16.4 z m 14.7,-67.1 c 0.7,-0.6 1.4,-1.3 1.9,-2.1 2.8,-5.1 3.9,-10.6 3.2,-16.3 -0.3,-2.6 -1,-3.2 -3.6,-3.2 -2.8,0 -5.6,0.1 -8.4,0.3 -0.7,0 -1.5,0.4 -2.2,0.7 0,0.2 0.1,0.4 0.1,0.7 0.9,0.1 1.8,0.1 2.8,0.2 1.4,0.2 1.7,0.6 1.7,2.1 0,1 -0.1,1.9 -0.1,2.9 0,1.6 0.8,2.7 2.3,3.2 0.9,0.3 1.8,0.5 2.7,0.8 0.9,0.3 1.9,0.5 2.2,1.5 -1,0.7 -1,0.7 -1.8,0.6 -3.2,-0.5 -6.3,-0.7 -9.5,0.4 -1,0.3 -1.6,-0.4 -1.2,-1.4 0.1,-0.4 0.4,-0.7 0.7,-1 1.1,-1.1 1.4,-2.5 1.7,-3.9 0.2,-1 -0.1,-1.7 -1,-2.2 -1.2,-0.6 -2.1,-1.4 -2.8,-2.6 -0.1,-0.2 -0.4,-0.3 -0.8,-0.5 0,0.6 0,0.9 0,1.2 0.5,3.6 0.9,7.3 1.5,10.9 0.4,2.4 1,4.7 2.5,6.6 2.1,2.8 5.5,3.2 8.1,1.1 z m 3.5,6.1 c -0.6,0.2 -1.1,0.6 -1.7,0.9 0,0.2 0,0.3 0.1,0.5 0.6,0.1 1.2,0.4 1.8,0.4 1.4,0 2.8,-0.1 4.3,-0.1 3,0 5.1,-1.7 6.8,-3.8 0.4,-0.4 0.6,-1.4 0.3,-1.8 -0.3,-0.4 -1.2,-0.8 -1.7,-0.7 -0.8,0.1 -1.7,0.5 -2.4,1 -2.4,1.4 -4.8,2.7 -7.5,3.6 z m 5.2,-5.5 c 0.1,-0.8 -0.4,-1.3 -1.2,-1.1 -1,0.3 -1.6,1 -1.8,2.1 1.8,0.9 2.8,0.5 3,-1 z m 0.3,39.4 c -0.7,0.7 -1.2,1.3 -1.8,2 1.2,0.7 1.9,0.2 2.6,-0.4 1.3,-1.3 1.2,-3.6 -0.2,-5.4 -1.1,-1.4 -2.3,-1.5 -4.1,-0.3 -0.7,0.5 -1.3,1 -1.8,1.6 -0.4,0.5 -0.7,1.2 -0.1,1.6 0.3,0.2 1,-0.1 1.4,-0.3 0.6,-0.3 0.9,-1.2 2.2,-0.7 -0.8,0.9 -1.4,1.7 -2.1,2.5 0.8,0.6 1.4,0.3 2,0 0.5,-0.2 0.9,-1 1.9,-0.6 z M 287.5,118 c 1.8,0.9 3.1,0.9 3.7,0.1 0.5,-0.8 0,-2.2 -1.2,-3.3 0,0 -0.1,0 -0.3,0 -0.4,1.3 -0.4,2.8 -2.2,3.2 z m 0.5,4.4 c 0.2,1.4 0.6,1.9 1.6,1.8 0.9,-0.1 1.7,-0.4 1.5,-1.8 -1,0 -2,0 -3.1,0 z m 3.7,45 c 0.1,0.6 0.4,1.2 0.7,1.7 0.9,1.2 2.7,1.2 3.6,0.1 1.4,-1.8 0.5,-4.3 -1.7,-4.6 -1.1,-0.2 -1.8,-0.5 -2.1,-1.6 -0.3,-1.1 -0.3,-2.2 0.7,-3 0.8,-0.7 1.6,-1.4 2.4,-2.2 1.1,-1.1 1.2,-1.6 0.2,-2.8 -0.8,-0.9 -1.7,-1.8 -2.5,-2.7 -1.1,-1.3 -0.8,-2.4 1,-2.7 0.6,-0.1 1.2,-0.1 1.8,-0.2 0.8,-0.2 1.3,-0.6 1,-1.5 -0.7,-2.2 -1.6,-4.3 -3.3,-6.2 -1.3,1.1 -1.5,2.4 -1.8,3.6 -1.8,7.4 -1.2,14.8 0,22.1 z m 16.6,-19 c 1.5,-1.4 2.1,-5.4 1,-7.1 -0.3,-0.4 -0.9,-0.8 -1.3,-0.8 -0.5,0.1 -1.1,0.5 -1.3,1 -0.3,0.5 -0.3,1.2 -0.3,1.8 0,0.8 0.1,1.6 0.1,2.4 0,1.7 -0.7,2.2 -2.3,1.6 -1.2,-0.5 -2.2,-1.3 -2.9,-2.5 -1.3,-2.3 -2.7,-4.6 -4,-6.9 -0.4,-0.7 -0.8,-1.6 -1.9,-1.9 -0.1,0.4 -0.2,0.7 -0.1,0.8 1.2,3.8 2.8,7.4 5.8,10.2 1.1,1.1 2.4,1.8 3.9,2 1.3,0.4 2.4,0.3 3.3,-0.6 z m -6.9,-26.3 c -1.6,-0.5 -1.7,-0.4 -2.1,0.6 -0.9,2.4 1.4,7.2 3.9,8 1.1,0.4 3,-0.7 2.7,-1.6 -0.6,-1.7 -1.1,-3.7 -2.8,-4.6 -1,0.1 -1.2,1.4 -2.2,0.9 -1,-1.3 0.6,-2.1 0.5,-3.3 z m 2.5,11.6 c -0.3,1.2 0.1,2.3 1,3.1 0.3,0.3 1.2,0.5 1.6,0.3 1.1,-0.5 1.4,-1.6 1.4,-2.5 0,-1.6 -0.6,-2.5 -1.4,-2.6 -0.8,0 -2.4,0.9 -2.6,1.7 z m 8.2,6.2 c 0.3,0.7 1,1.2 1.4,1.7 0.2,0 0.3,-0.1 0.5,-0.1 0.7,-2.6 0.3,-5.6 2.7,-7.7 0.5,1.4 0.9,2.7 1.4,4.1 1.1,-0.7 0.9,-1.6 0.9,-2.4 0,-2.7 -0.1,-5.5 0.1,-8.2 0.1,-2.1 -0.6,-3.4 -2.2,-4.7 -4.3,-3.4 -9.1,-5.7 -14.4,-6.9 -1,-0.2 -2.1,-0.5 -3.2,0.2 0.2,0.9 0.9,1.1 1.5,1.3 2.5,0.8 3.9,2.6 4.7,5 1,3.1 2,6.2 3.1,9.3 1.1,3 2.3,5.7 3.5,8.4 z m -3,-25.7 c 0.5,0 1.4,-0.2 1.6,-0.5 0.3,-0.5 0.4,-1.5 0.1,-1.9 -0.5,-0.6 -1.4,-1.1 -2.1,-1.3 -0.3,-0.1 -0.9,0.6 -1.3,1 -0.4,0.4 -0.7,0.8 -1,1.3 0.7,1.2 1.7,1.4 2.7,1.4 z m 6.9,2.7 c 1.2,-0.1 1.1,-0.9 0.9,-2 -1,-0.1 -2,-0.3 -2.3,0.8 -0.1,0.7 0.7,1.3 1.4,1.2 z m -3,34.6 c -0.2,-0.5 -1.2,-0.4 -1.3,0.2 -0.1,0.8 0,1.6 0,2.3 0.8,0.3 1.3,0.1 1.4,-0.5 0.1,-0.7 0.1,-1.4 -0.1,-2 z m -2.5,11.6 c 0.3,0.8 0.5,2 1.1,2.9 0.5,0.9 1.4,0.9 2.1,0.3 1.2,-1.2 1.6,-5.3 0.6,-6.6 -0.4,-0.5 -1.3,-0.9 -1.9,-0.9 -0.5,0 -1.1,0.8 -1.3,1.3 -0.4,0.9 -0.4,1.8 -0.6,3 z m 3.9,13.9 c 1.2,0.2 1.8,-0.2 1.8,-1.9 0,-0.9 -0.8,-1.8 -1.8,-2.6 -0.8,-0.6 -1.5,-0.5 -2.1,0.4 -1.2,1.7 -0.3,3.6 2.1,4.1 z m 2.7,5.9 c -0.1,-0.8 -0.1,-1.5 -0.2,-2.1 -1.3,1 -1.2,1.2 0.2,2.1 z M 319,168 c 0.5,-1.6 0.6,-10.5 0,-11.8 -1.8,2.8 -1.8,10 0,11.8 z m 0.5,-17.8 c -0.5,-1.9 0.4,-3.9 -1.5,-5.4 -1.5,2 -1,3.9 1.5,5.4 z M 317.4,104 c -3.1,-2.3 -6.5,-4.2 -10.1,-5.6 -1,-0.4 -2,-0.4 -3,0 -2.2,1 -4.5,2 -6.6,3.1 -0.6,0.3 -1,0.8 -1.6,1.3 0.4,0.8 0.7,1.5 1.1,2.1 0.8,1.2 1,2.5 0.4,3.9 -1.4,3.5 -0.3,3.4 2.5,3.3 0.3,0 0.7,0 1,-0.1 0.7,-0.4 1.4,-0.8 1.8,-1.5 0.5,-0.8 -0.4,-1.3 -0.9,-1.8 -0.1,-0.1 -0.2,-0.2 -0.3,-0.3 -0.3,-0.5 -0.8,-1 -0.6,-1.3 0.2,-0.5 0.8,-1 1.3,-1 1.3,-0.1 2.6,-0.2 3.8,0.2 3.1,1 6.1,2.3 9.1,3.5 0.8,0.3 1.6,0.8 2.4,1.1 0.9,0.3 1.5,0 1.6,-0.9 0.4,-2.4 0.2,-4.4 -1.9,-6 z m -46,-13.2 c -2.5,-0.3 -4.1,1.6 -3.2,4 0.4,1.2 1.4,2.1 2.2,3.1 0.2,0.2 0.6,0.2 1.2,0.4 -0.2,-0.8 -0.3,-1.4 -0.4,-2 1,-0.7 1.8,-0.7 2.6,0.2 0.6,0.7 1.3,0.6 2,0.1 0.6,-0.5 1.1,-1 1.6,-1.5 0.6,-0.7 0.5,-1.4 -0.3,-1.9 -1.7,-1.2 -3.6,-2.2 -5.7,-2.4 z M 190.3,276 c 0,47.1 38,85.2 85,85.2 47,0 85,-38 85.1,-85 0.1,-46.9 -38.1,-85.1 -85,-85.1 -47,-0.1 -85.1,38 -85.1,84.9 z M 79.9,163.2 c -7.2,10.3 -20.1,41.3 -22.5,53.8 43,10.5 85.9,21.1 128.6,31.5 2.8,-6.4 5.5,-12.5 8.3,-18.9 -37.9,-22 -76.2,-44.2 -114.4,-66.4 z m 130,46.4 c 5.4,-4.3 10.7,-8.4 16.1,-12.7 -22.7,-37.7 -45.5,-75.6 -68.4,-113.6 -16.8,10.3 -31.8,22.4 -45.3,36.6 32.7,30.1 65.2,60 97.6,89.7 z M 49.5,270.7 c -0.4,19.7 1.6,39 6.2,58.3 43,-11.5 85.6,-23 128.5,-34.5 -1.4,-6.9 -1.9,-13.7 -1.9,-20.7 -44.3,-1 -88.4,-2 -132.8,-3.1 z M 74.8,380 c 9.2,17.6 20.4,33.6 33.7,48.3 32.1,-30.8 64,-61.4 95.9,-92.1 -4.6,-5.5 -8.4,-11.2 -11.7,-17.5 -39.4,20.5 -78.6,40.9 -117.9,61.3 z m 75.1,83.9 c 16.6,11.1 34.1,19.7 53.1,26.2 13.3,-42.4 26.5,-84.6 39.7,-127 -6.8,-2.6 -13,-5.8 -18.9,-9.7 -24.7,37 -49.3,73.7 -73.9,110.5 z m 141.7,-391 c -1.3,-0.9 -2.5,-1 -3.8,-0.8 -1,0.1 -1.9,0.7 -2,1.7 -0.1,0.6 0.2,1.3 0.6,1.7 0.4,0.4 1.1,0.8 1.8,0.1 0.2,-0.2 0.6,-0.5 0.8,-0.4 1.7,0.3 2.1,-0.9 2.6,-2.3 z M 283.7,84 c -1,0.1 -2.1,0 -3.3,0 1.1,1.3 2.5,1.9 4.1,1.7 1.2,-0.1 1.8,-0.8 2.1,-2.3 -1.1,-0.3 -2,0.5 -2.9,0.6 z M 547.6,276.1 C 547.6,426.2 425.5,548.3 275.4,548.3 125.2,548.4 3.1,426.3 3.1,276.1 3.1,125.9 125.2,3.9 275.3,3.9 425.4,3.9 547.6,126 547.6,276.1 Z m -6,2 C 542.6,131.1 424.4,11.3 277.8,9.9 129.6,8.5 9.1,128.2 9,276.1 c 0,146.3 117.9,265.5 264.6,266.3 148.4,0.9 267,-118.8 268,-264.3 z m -337,-2.1 c 0.1,-39 31.8,-70.6 70.7,-70.5 39,0 70.8,31.8 70.7,70.8 -0.1,39 -31.9,70.8 -70.8,70.6 C 236,346.7 204.5,315 204.6,276 Z m 99.8,43.5 c -1.1,-5.3 -4.7,-8.9 -8.9,-12.3 -4.7,4.3 -10.5,5.2 -16.1,5.4 -0.6,1 -0.9,1.7 -1.4,2.2 -1.5,1.8 -4.2,1.6 -5.9,-0.3 -0.8,-0.9 -1.3,-2 -2,-3.1 -5.4,1.2 -10.4,-0.3 -15.6,-2 -2.9,2.7 -5.5,5.5 -7,9.2 -1.5,4 -1,7.6 1.7,10.9 1.9,2.4 4.4,4.2 7.4,4.8 2.3,0.5 4.7,0.8 7.1,0.8 4.4,0.1 8.7,0 13.1,-0.1 4.8,-0.1 9.7,-0.2 14.4,-1.1 4.5,-0.9 8.4,-2.6 11.2,-6.4 1.8,-2.3 2.6,-5 2,-8 z M 247.1,281 c 3.8,-0.3 7.4,-1.7 11,-3.2 -0.8,-6.1 1.4,-11 5.1,-15.6 -1.2,-1.8 -2.3,-3.6 -3.6,-5.2 -1.2,-1.5 -2.5,-2.9 -3.9,-4.2 -1.5,-1.4 -3.4,-1.5 -5.1,-0.3 -1.4,0.9 -2.7,2.1 -3.7,3.4 -3.2,4 -5,8.5 -5.9,13.5 -0.4,2.6 -0.5,5.1 0.3,7.7 1,3 2.6,4.1 5.8,3.9 z m -5.7,0.6 c -0.5,0.9 -1.2,1.8 -1.5,2.7 -0.3,0.9 -0.1,1.7 0.7,2.3 0.9,0.6 1.8,0.9 2.9,0.7 0.3,-0.1 0.5,-0.4 0.7,-0.7 0.5,-0.9 0.9,-1.8 1.3,-2.7 -1.4,-0.7 -2.6,-1.4 -4.1,-2.3 z m 12.4,-32.7 c 0.8,0.1 1.6,0.2 2.4,0.4 0.3,-1.4 0.6,-2.7 0.9,-4.2 -0.8,-0.8 -2,-1.1 -3.3,-0.9 -1.4,0.2 -2,1.2 -2,2.8 0.2,1.5 0.5,1.8 2,1.9 z m -7.9,41.5 c 0.4,1.4 1,2.8 1.8,4 3.2,4.8 7.5,8.5 12.8,10.7 1.8,0.8 3.8,1.2 5.7,1.3 3.4,0.2 5.1,-1.3 5.8,-4.7 0.6,-3.4 0.5,-6.9 0.2,-10.4 0,-0.2 -0.2,-0.4 -0.3,-0.7 -5.7,-1 -9.8,-4.6 -13,-9.7 -2.7,0.9 -5.3,1.7 -7.9,2.6 -1,0.4 -2,0.9 -2.9,1.4 -2.2,1.6 -2.9,3 -2.2,5.5 z m 39.4,-27.9 c 4.2,4.4 5.5,9.7 5.1,15.5 3,1.4 6,2.4 9.1,3 4.8,1 7,-0.7 7.7,-5.5 0.1,-0.6 0.1,-1.2 0.1,-1.8 -0.1,-2.2 -0.2,-4.4 -0.5,-6.5 -0.7,-3.9 -2,-7.5 -4.3,-10.7 -1.1,-1.6 -2.5,-3.1 -4.3,-4 -1.8,-0.9 -3.5,-0.9 -5.2,0.3 -3.3,2.7 -5.4,6.2 -7.7,9.7 z m 6.5,-14.9 c 0.2,0.9 0.4,1.8 0.6,2.9 0.7,-0.1 1.4,-0.3 2,-0.4 0.7,-0.1 1.4,0 2.4,0 0,-0.8 0.2,-1.6 0.1,-2.3 -0.3,-2.5 -2.5,-3.3 -4.5,-1.8 -0.6,0.4 -0.8,0.9 -0.6,1.6 z m 13.1,37.7 c 0.6,1.4 1.2,2.6 1.9,4.2 0.9,-0.4 2,-0.8 2.8,-1.3 0.8,-0.5 1.1,-1.4 0.8,-2.3 -0.3,-1 -0.9,-1.9 -1.9,-2.2 -0.3,-0.1 -0.7,0 -0.9,0.1 -1,0.5 -1.9,1.1 -2.7,1.5 z m -29.2,5.8 c 0,2.7 -0.1,5.2 0,7.7 0,1.3 0.2,2.7 0.5,4 0.5,2.3 1.6,3.2 3.9,3.5 0.7,0.1 1.5,0.1 2.2,0 7.9,-1.4 14.2,-5.3 18.7,-11.9 0.6,-0.9 1,-2.1 1.3,-3.2 0.7,-2.6 0.1,-4.5 -2.3,-5.7 -2.3,-1.2 -4.8,-2.1 -7.3,-3 -1.2,-0.4 -2.5,-0.7 -3.8,-1 -2.8,5.4 -7.5,8.2 -13.2,9.6 z m 0.5,16.7 c -0.6,-0.5 -1.1,-1.1 -1.7,-1.7 -1.1,1 -2.2,2 -3.2,2.9 0.4,1.2 1.1,2.1 2.3,2.7 1.2,0.5 2.4,0 3.2,-1.4 0.7,-1.2 0.6,-1.5 -0.6,-2.5 z m 7,-33.4 c 0,-4.9 -3.7,-8.7 -8.5,-8.8 -4.8,-0.1 -8.7,3.7 -8.8,8.5 -0.1,4.8 3.7,8.7 8.6,8.8 4.8,0.1 8.7,-3.7 8.7,-8.5 z m 43.9,-10.6 c -5.2,-0.3 -9.9,1.3 -14.4,3.6 0.4,5.3 0.8,10.2 1.2,15.2 0.1,0.8 0.2,1.5 1,2.1 1,0.7 1,1.8 0.7,3 -0.5,1.9 -1.7,3.1 -3.6,3.6 -0.8,0.2 -1.3,0.6 -1.8,1.2 -2.7,3.6 -5.5,7.1 -8.3,10.6 -0.4,0.5 -0.7,1 -1.1,1.5 2.2,3.2 4.5,6.3 7.6,8.6 3.6,2.7 7.6,3.2 11.7,1.4 1.2,-0.5 2.5,-1.1 3.7,-1.8 2.5,-1.3 4.4,-3.2 5.6,-5.8 0.6,-1.3 1.3,-2.6 1.7,-3.9 2,-6.3 4.1,-12.6 5.8,-18.9 0.8,-2.7 1.2,-5.6 1.2,-8.4 0.1,-6.7 -4.4,-11.5 -11,-12 z m -49,-28.9 c 0.2,0.8 0.5,1.3 1.4,1.5 4.4,1 8.3,3 12.2,5.1 0.6,0.4 1.3,0.7 1.9,1 1.8,-1.1 3.5,-1.8 5.5,-0.6 1.9,1.2 2,3 1.5,4.9 5.9,3.5 8.2,9.6 11.1,15.4 4.3,-1.2 8.4,-2.8 11.7,-5.7 2.2,-2 3.7,-4.4 3.8,-7.4 0.2,-5.2 -1.1,-10 -4.9,-13.8 -1.1,-1.1 -2.2,-2.2 -3.4,-3.2 -3.8,-2.8 -7.6,-5.8 -11.6,-8.3 -2.7,-1.7 -5.6,-3.1 -8.5,-4.3 -3.4,-1.4 -7,-1.8 -10.6,-1.1 -5.7,1.1 -9.3,4.3 -10.3,9.4 -0.4,2.3 -0.3,4.7 0.2,7.1 z m -8.6,6.4 c -2.8,0.3 -5.5,1 -7.8,2.7 -2.6,1.9 -3.2,4 -1.9,6.9 1.5,3.4 3.9,6.3 6.4,9.3 5.4,-2.7 10.9,-2.2 16.6,0.1 1.9,-2.7 3.7,-5.3 5.4,-7.9 0.4,-0.6 0.7,-1.3 0.9,-2 0.8,-2.3 0.5,-3.8 -1.4,-5.3 -1.3,-1 -2.7,-1.8 -4.2,-2.4 -4.4,-1.6 -9.2,-1.9 -14,-1.4 z m -45.8,9.6 c 1.1,5 4.7,7.6 9.3,9.1 1.2,0.4 2.5,0.5 3.6,0.7 3.5,-5.9 7.8,-10.6 12.1,-15.4 -0.6,-3 0.3,-4.8 2.7,-5.4 0.9,-0.2 1.9,-0.1 2.8,0 1,0.2 1.9,0.6 3,1 3.8,-4.2 9.1,-4.6 14.4,-5.4 0.2,-3.2 0.2,-6.2 -0.6,-9.2 -0.8,-2.8 -2.5,-4.8 -5.1,-6 -3.2,-1.4 -6.5,-1.9 -10,-1.7 -3.1,0.2 -5.8,1.5 -8.3,3.1 -6.3,4 -12.2,8.4 -17.8,13.3 -1.1,1 -2.1,2.1 -3.1,3.2 -3.4,3.7 -4,8.1 -3,12.7 z m -6,16.5 c -3.5,4.9 -4.1,10.3 -2.7,16 2,7.7 4.6,15.2 7.6,22.6 0.5,1.1 1,2.2 1.7,3.3 0.8,1.2 1.6,2.4 2.6,3.4 5.6,5.6 13.6,5.2 18.6,-0.9 1.8,-2.1 3.1,-4.5 4,-7.1 -4,-4.5 -6.9,-9.6 -9.7,-14.9 -0.4,-0.7 -0.9,-1 -1.7,-1.2 -2.9,-0.7 -4.1,-4 -2.3,-6.4 0.3,-0.4 0.7,-0.8 1.1,-1.2 -2.9,-4.9 -2.3,-10.1 -1.9,-15.8 -2.4,-0.7 -4.8,-1.4 -7.1,-2 -4.3,-1 -7.6,0.6 -10.2,4.2 z"
   id="path4" /><path
   class="st2"
   d="m 633.1,85.1 h 76.8 c 15.5,0 22.6,2.7 22.6,16.8 v 5.3 c 0,11.5 -4.9,16.8 -18.1,16.8 H 633.2 V 85.1 Z m -49.9,121.1 49.9,-0.8 v -41.6 h 77.2 c 15.3,0 20.1,5.5 20.1,22.3 v 19.2 h 49.1 v -27.2 c 0,-26.3 -12.2,-32.7 -26.8,-35.4 v -0.4 c 22.6,-5.3 27.4,-17.9 27.4,-39.4 V 92.8 c 0,-28.8 -10.2,-47.6 -48,-47.6 l -149,0.8 v 160.2 z m 226.6,-57 c 0,46.9 26.3,58 70.6,58 h 78.7 c 44.2,0 70.6,-11.1 70.6,-58 v -47.8 c 0,-46.9 -26.3,-58 -70.6,-58 h -78.7 c -44.2,0 -70.6,11.1 -70.6,58 z m 50.4,-32.5 c 0,-19.9 4.9,-32.1 30.8,-32.1 h 57.5 c 25.9,0 30.8,12.2 30.8,32.1 V 134 c 0,23.2 -4.9,32.1 -28.1,32.1 h -62.8 c -23.2,0 -28.1,-8.8 -28.1,-32.1 v -17.3 z m 199.1,31.6 c 0,39.8 20.6,58.8 65.7,58.8 h 70.3 c 45.1,0 65.7,-19 65.7,-58.8 v -103 h -49 v 92.5 c 0,20.3 -7.3,28.3 -27.4,28.3 h -48.7 c -20.1,0 -27.4,-8 -27.4,-28.3 V 45.3 h -49.1 v 103 z m 234.9,57.1 h 49.1 V 89.1 h 0.4 l 92.2,116.4 H 1512 V 45.3 h -49 v 116.4 h -0.4 L 1370.4,45.3 h -76.1 v 160.1 z m 252.9,0 h 148.2 c 49.1,0 66.4,-16.1 66.4,-55.7 V 101 c 0,-39.6 -17.3,-55.7 -66.4,-55.7 h -148.2 z m 49.1,-120.3 h 87.2 c 21,0 29.2,6 29.2,28.8 v 21.7 c 0,22.8 -8.2,28.8 -29.2,28.8 h -87.2 z M 583.4,288.4 h 78.1 V 424.5 H 717 V 288.4 h 78 v -45 H 583.4 Z m 218.2,136.2 h 62.1 l 16.3,-32 h 112.6 l 17.3,32 h 61.8 L 972.1,243.4 h -72.3 z m 134.1,-139.2 36,68.1 h -71.1 z m 155.6,139.2 h 176.9 c 31.8,0 55.3,-8.3 55.3,-48 0,-27.3 -9,-40.3 -33.3,-43.3 v -0.7 c 15.5,-4.5 26.8,-10.5 26.8,-41.5 0,-35.5 -21.5,-47.5 -65.8,-47.5 h -159.9 z m 55.6,-71.9 h 99.6 c 12,0 20,2.8 20,15 0,10.5 -8,13.3 -20,13.3 h -99.6 z m 0,-65.8 h 98.3 c 10.3,0 16.3,3.8 16.3,14.3 0,10.3 -6,14 -16.3,14 h -98.3 z M 1357,424.6 h 180.4 V 378 H 1412.5 V 243.4 H 1357 Z m 204,0 h 200.7 V 381 h -145.1 v -29 h 135.1 v -37.5 h -135.1 v -29 h 145.1 v -42 H 1561 Z"
   id="path6" />
<text
   xml:space="preserve"
   style="font-style:normal;font-weight:normal;font-size:74.6667px;line-height:1.25;font-family:sans-serif;fill:#000000;fill-opacity:1;stroke:none"
   x="1122.6777"
   y="509.51401"
   id="text1958"><tspan
     sodipodi:role="line"
     id="tspan1956"
     x="1122.6777"
     y="509.51401"
     style="font-style:normal;font-variant:normal;font-weight:normal;font-stretch:normal;font-size:74.6667px;font-family:'Eurostile Extended';-inkscape-font-specification:'Eurostile Extended'">FARNHAM 90</tspan></text></svg>
